<svg width="430" height="932" viewBox="0 0 430 932" fill="none" xmlns="http://www.w3.org/2000/svg">
<g clip-path="url(#clip0_79_77)">
<rect width="430" height="932" fill="url(#paint0_linear_79_77)"/>
<rect x="4" y="55" width="422" height="895" rx="15" fill="#D9D9D9" fill-opacity="0.5"/>
<rect x="7" y="598" width="417" height="57" rx="15" fill="#D9D9D9" fill-opacity="0.5"/>
<rect x="7" y="859" width="417" height="57" rx="15" fill="#D9D9D9" fill-opacity="0.5"/>
<rect x="7" y="442" width="417" height="57" rx="15" fill="#D9D9D9" fill-opacity="0.5"/>
<rect x="7" y="924" width="417" height="57" rx="15" fill="#D9D9D9" fill-opacity="0.5"/>
<rect x="7" y="507" width="417" height="57" rx="15" fill="#D9D9D9" fill-opacity="0.5"/>
<rect x="7" y="663" width="417" height="57" rx="15" fill="#D9D9D9" fill-opacity="0.5"/>
<rect x="7" y="246" width="417" height="57" rx="15" fill="#D9D9D9" fill-opacity="0.5"/>
<rect x="7" y="729" width="417" height="57" rx="15" fill="#D9D9D9" fill-opacity="0.49"/>
<rect x="7" y="312" width="417" height="57" rx="15" fill="#D9D9D9" fill-opacity="0.49"/>
<rect x="7" y="794" width="417" height="57" rx="15" fill="#D9D9D9" fill-opacity="0.49"/>
<rect x="7" y="377" width="417" height="57" rx="15" fill="#D9D9D9" fill-opacity="0.49"/>
<path d="M31 758H47M59 758C59 769.046 50.0457 778 39 778C27.9543 778 19 769.046 19 758C19 746.954 27.9543 738 39 738C50.0457 738 59 746.954 59 758Z" stroke="#EC221F" stroke-width="4" stroke-linecap="round" stroke-linejoin="round"/>
<path d="M31 341H47M59 341C59 352.046 50.0457 361 39 361C27.9543 361 19 352.046 19 341C19 329.954 27.9543 321 39 321C50.0457 321 59 329.954 59 341Z" stroke="#EC221F" stroke-width="4" stroke-linecap="round" stroke-linejoin="round"/>
<path d="M41.5 620V635M34 627.5H49M60.25 627.5C60.25 637.855 51.8553 646.25 41.5 646.25C31.1447 646.25 22.75 637.855 22.75 627.5C22.75 617.145 31.1447 608.75 41.5 608.75C51.8553 608.75 60.25 617.145 60.25 627.5Z" stroke="#009951" stroke-width="4" stroke-linecap="round" stroke-linejoin="round"/>
<path d="M31 951.5H47M59 951.5C59 962.776 50.0457 971.917 39 971.917C27.9543 971.917 19 962.776 19 951.5C19 940.224 27.9543 931.083 39 931.083C50.0457 931.083 59 940.224 59 951.5Z" stroke="#EC221F" stroke-width="4" stroke-linecap="round" stroke-linejoin="round"/>
<path d="M31 534.5H47M59 534.5C59 545.776 50.0457 554.917 39 554.917C27.9543 554.917 19 545.776 19 534.5C19 523.224 27.9543 514.083 39 514.083C50.0457 514.083 59 523.224 59 534.5Z" stroke="#EC221F" stroke-width="4" stroke-linecap="round" stroke-linejoin="round"/>
<path d="M31 690H47M59 690C59 701.046 50.0457 710 39 710C27.9543 710 19 701.046 19 690C19 678.954 27.9543 670 39 670C50.0457 670 59 678.954 59 690Z" stroke="#EC221F" stroke-width="4" stroke-linecap="round" stroke-linejoin="round"/>
<path d="M31 273H47M59 273C59 284.046 50.0457 293 39 293C27.9543 293 19 284.046 19 273C19 261.954 27.9543 253 39 253C50.0457 253 59 261.954 59 273Z" stroke="#EC221F" stroke-width="4" stroke-linecap="round" stroke-linejoin="round"/>
<path d="M31 886H47M59 886C59 897.046 50.0457 906 39 906C27.9543 906 19 897.046 19 886C19 874.954 27.9543 866 39 866C50.0457 866 59 874.954 59 886Z" stroke="#EC221F" stroke-width="4" stroke-linecap="round" stroke-linejoin="round"/>
<path d="M31 469H47M59 469C59 480.046 50.0457 489 39 489C27.9543 489 19 480.046 19 469C19 457.954 27.9543 449 39 449C50.0457 449 59 457.954 59 469Z" stroke="#EC221F" stroke-width="4" stroke-linecap="round" stroke-linejoin="round"/>
<path d="M41.5 816V831M34 823.5H49M60.25 823.5C60.25 833.855 51.8553 842.25 41.5 842.25C31.1447 842.25 22.75 833.855 22.75 823.5C22.75 813.145 31.1447 804.75 41.5 804.75C51.8553 804.75 60.25 813.145 60.25 823.5Z" stroke="#009951" stroke-width="4" stroke-linecap="round" stroke-linejoin="round"/>
<path d="M41.5 399V414M34 406.5H49M60.25 406.5C60.25 416.855 51.8553 425.25 41.5 425.25C31.1447 425.25 22.75 416.855 22.75 406.5C22.75 396.145 31.1447 387.75 41.5 387.75C51.8553 387.75 60.25 396.145 60.25 406.5Z" stroke="#009951" stroke-width="4" stroke-linecap="round" stroke-linejoin="round"/>
<rect x="22" y="74" width="385" height="123" fill="#D9D9D9"/>
<path d="M24.125 234V216.545H36.7045V220.364H28.8636V223.364H36.0568V227.182H28.8636V230.182H36.6705V234H24.125ZM43.1797 220.909L45.0888 224.966L47.1001 220.909H51.7706L48.2592 227.455L51.9411 234H47.3047L45.0888 229.841L42.9411 234H38.2365L41.9524 227.455L38.4751 220.909H43.1797ZM61.25 220.909V224.318H52.625V220.909H61.25ZM54.2955 217.773H59V229.79C59 229.972 59.0312 230.125 59.0938 230.25C59.1562 230.369 59.2528 230.46 59.3835 230.523C59.5142 230.58 59.6818 230.608 59.8864 230.608C60.0284 230.608 60.1932 230.591 60.3807 230.557C60.5739 230.523 60.7159 230.494 60.8068 230.472L61.4886 233.778C61.2784 233.841 60.9773 233.918 60.5852 234.009C60.1989 234.099 59.7386 234.159 59.2045 234.188C58.125 234.244 57.2188 234.134 56.4858 233.855C55.7528 233.571 55.2017 233.125 54.8324 232.517C54.4631 231.909 54.2841 231.148 54.2955 230.233V217.773ZM63.1697 234V220.909H67.7379V223.398H67.8743C68.1129 222.477 68.4908 221.804 69.0078 221.378C69.5305 220.952 70.1413 220.739 70.8402 220.739C71.0447 220.739 71.2464 220.756 71.4453 220.79C71.6499 220.818 71.8459 220.861 72.0334 220.918V224.932C71.8004 224.852 71.5135 224.793 71.1726 224.753C70.8317 224.713 70.5391 224.693 70.2947 224.693C69.8345 224.693 69.4197 224.798 69.0504 225.009C68.6868 225.213 68.3999 225.503 68.1896 225.878C67.9794 226.247 67.8743 226.682 67.8743 227.182V234H63.1697ZM76.6143 234.205C75.7791 234.205 75.0405 234.068 74.3984 233.795C73.7621 233.517 73.2621 233.097 72.8984 232.534C72.5348 231.972 72.353 231.256 72.353 230.386C72.353 229.67 72.4751 229.06 72.7195 228.554C72.9638 228.043 73.3047 227.625 73.7422 227.301C74.1797 226.977 74.6882 226.73 75.2678 226.56C75.853 226.389 76.4837 226.278 77.1598 226.227C77.8928 226.17 78.4808 226.102 78.924 226.023C79.3729 225.937 79.6967 225.821 79.8956 225.673C80.0945 225.52 80.1939 225.318 80.1939 225.068V225.034C80.1939 224.693 80.0632 224.432 79.8018 224.25C79.5405 224.068 79.2053 223.977 78.7962 223.977C78.3473 223.977 77.9808 224.077 77.6967 224.276C77.4183 224.469 77.2507 224.767 77.1939 225.17H72.8643C72.9212 224.375 73.174 223.642 73.6229 222.972C74.0774 222.295 74.7393 221.756 75.6087 221.352C76.478 220.943 77.5632 220.739 78.8643 220.739C79.8018 220.739 80.6428 220.849 81.3871 221.071C82.1314 221.287 82.7649 221.591 83.2876 221.983C83.8104 222.369 84.2081 222.824 84.4808 223.347C84.7592 223.864 84.8984 224.426 84.8984 225.034V234H80.5007V232.159H80.3984C80.1371 232.648 79.8189 233.043 79.4439 233.344C79.0746 233.645 78.6513 233.864 78.174 234C77.7024 234.136 77.1825 234.205 76.6143 234.205ZM78.1484 231.239C78.5064 231.239 78.8416 231.165 79.1541 231.017C79.4723 230.869 79.7308 230.656 79.9297 230.378C80.1286 230.099 80.228 229.761 80.228 229.364V228.273C80.103 228.324 79.9695 228.372 79.8274 228.418C79.6911 228.463 79.5433 228.506 79.3842 228.545C79.2308 228.585 79.0661 228.622 78.8899 228.656C78.7195 228.69 78.5405 228.722 78.353 228.75C77.9893 228.807 77.6911 228.901 77.4581 229.031C77.2308 229.156 77.0604 229.312 76.9467 229.5C76.8388 229.682 76.7848 229.886 76.7848 230.114C76.7848 230.477 76.9126 230.756 77.1683 230.949C77.424 231.142 77.7507 231.239 78.1484 231.239ZM94.9531 220.909V224.318H86.3281V220.909H94.9531ZM87.9986 217.773H92.7031V229.79C92.7031 229.972 92.7344 230.125 92.7969 230.25C92.8594 230.369 92.956 230.46 93.0866 230.523C93.2173 230.58 93.3849 230.608 93.5895 230.608C93.7315 230.608 93.8963 230.591 94.0838 230.557C94.277 230.523 94.419 230.494 94.5099 230.472L95.1918 233.778C94.9815 233.841 94.6804 233.918 94.2884 234.009C93.902 234.099 93.4418 234.159 92.9077 234.188C91.8281 234.244 90.9219 234.134 90.1889 233.855C89.456 233.571 88.9048 233.125 88.5355 232.517C88.1662 231.909 87.9872 231.148 87.9986 230.233V217.773ZM103.039 234.239C101.619 234.239 100.403 233.957 99.3913 233.395C98.38 232.827 97.6044 232.037 97.0646 231.026C96.5249 230.009 96.255 228.83 96.255 227.489C96.255 226.148 96.5249 224.972 97.0646 223.96C97.6044 222.943 98.38 222.153 99.3913 221.591C100.403 221.023 101.619 220.739 103.039 220.739C104.46 220.739 105.675 221.023 106.687 221.591C107.698 222.153 108.474 222.943 109.013 223.96C109.553 224.972 109.823 226.148 109.823 227.489C109.823 228.83 109.553 230.009 109.013 231.026C108.474 232.037 107.698 232.827 106.687 233.395C105.675 233.957 104.46 234.239 103.039 234.239ZM103.073 230.761C103.471 230.761 103.815 230.628 104.104 230.361C104.394 230.094 104.619 229.713 104.778 229.219C104.937 228.724 105.016 228.136 105.016 227.455C105.016 226.767 104.937 226.179 104.778 225.69C104.619 225.196 104.394 224.815 104.104 224.548C103.815 224.281 103.471 224.148 103.073 224.148C102.653 224.148 102.292 224.281 101.991 224.548C101.69 224.815 101.46 225.196 101.3 225.69C101.141 226.179 101.062 226.767 101.062 227.455C101.062 228.136 101.141 228.724 101.3 229.219C101.46 229.713 101.69 230.094 101.991 230.361C102.292 230.628 102.653 230.761 103.073 230.761ZM127.781 222.307C127.707 222.006 127.59 221.741 127.431 221.514C127.272 221.281 127.073 221.085 126.835 220.926C126.602 220.761 126.329 220.639 126.016 220.56C125.71 220.474 125.371 220.432 125.002 220.432C124.207 220.432 123.528 220.622 122.965 221.003C122.408 221.384 121.982 221.932 121.687 222.648C121.397 223.364 121.252 224.227 121.252 225.239C121.252 226.261 121.391 227.136 121.67 227.864C121.948 228.591 122.363 229.148 122.914 229.534C123.465 229.92 124.15 230.114 124.968 230.114C125.69 230.114 126.289 230.009 126.766 229.798C127.249 229.588 127.61 229.29 127.849 228.903C128.087 228.517 128.207 228.062 128.207 227.54L129.025 227.625H125.036V224.25H132.775V226.67C132.775 228.261 132.437 229.622 131.761 230.753C131.09 231.878 130.164 232.741 128.982 233.344C127.806 233.94 126.457 234.239 124.934 234.239C123.235 234.239 121.744 233.878 120.46 233.156C119.175 232.435 118.173 231.406 117.451 230.071C116.735 228.736 116.377 227.148 116.377 225.307C116.377 223.864 116.596 222.585 117.033 221.472C117.477 220.358 118.09 219.418 118.874 218.651C119.658 217.878 120.565 217.295 121.593 216.903C122.621 216.506 123.724 216.307 124.9 216.307C125.934 216.307 126.894 216.455 127.781 216.75C128.673 217.04 129.46 217.455 130.141 217.994C130.829 218.528 131.383 219.162 131.803 219.895C132.224 220.628 132.479 221.432 132.57 222.307H127.781ZM141.325 234.239C139.928 234.239 138.723 233.972 137.712 233.438C136.706 232.898 135.93 232.125 135.385 231.119C134.845 230.108 134.575 228.898 134.575 227.489C134.575 226.136 134.848 224.955 135.393 223.943C135.939 222.932 136.709 222.145 137.703 221.582C138.697 221.02 139.871 220.739 141.223 220.739C142.212 220.739 143.107 220.892 143.908 221.199C144.709 221.506 145.393 221.952 145.962 222.537C146.53 223.116 146.967 223.821 147.274 224.651C147.581 225.48 147.734 226.415 147.734 227.455V228.545H136.041V225.955H143.405C143.399 225.58 143.303 225.25 143.115 224.966C142.933 224.676 142.686 224.452 142.374 224.293C142.067 224.128 141.717 224.045 141.325 224.045C140.945 224.045 140.595 224.128 140.277 224.293C139.959 224.452 139.703 224.673 139.51 224.957C139.322 225.241 139.223 225.574 139.212 225.955V228.75C139.212 229.17 139.3 229.545 139.476 229.875C139.652 230.205 139.905 230.463 140.234 230.651C140.564 230.838 140.962 230.932 141.428 230.932C141.751 230.932 142.047 230.886 142.314 230.795C142.587 230.705 142.82 230.574 143.013 230.403C143.206 230.227 143.348 230.017 143.439 229.773H147.734C147.587 230.682 147.237 231.472 146.686 232.142C146.135 232.807 145.405 233.324 144.496 233.693C143.592 234.057 142.536 234.239 141.325 234.239ZM149.654 234V220.909H154.222V223.398H154.359C154.597 222.477 154.975 221.804 155.492 221.378C156.015 220.952 156.626 220.739 157.325 220.739C157.529 220.739 157.731 220.756 157.93 220.79C158.134 220.818 158.33 220.861 158.518 220.918V224.932C158.285 224.852 157.998 224.793 157.657 224.753C157.316 224.713 157.023 224.693 156.779 224.693C156.319 224.693 155.904 224.798 155.535 225.009C155.171 225.213 154.884 225.503 154.674 225.878C154.464 226.247 154.359 226.682 154.359 227.182V234H149.654ZM163.099 234.205C162.263 234.205 161.525 234.068 160.883 233.795C160.246 233.517 159.746 233.097 159.383 232.534C159.019 231.972 158.837 231.256 158.837 230.386C158.837 229.67 158.96 229.06 159.204 228.554C159.448 228.043 159.789 227.625 160.227 227.301C160.664 226.977 161.173 226.73 161.752 226.56C162.337 226.389 162.968 226.278 163.644 226.227C164.377 226.17 164.965 226.102 165.408 226.023C165.857 225.937 166.181 225.821 166.38 225.673C166.579 225.52 166.678 225.318 166.678 225.068V225.034C166.678 224.693 166.548 224.432 166.286 224.25C166.025 224.068 165.69 223.977 165.281 223.977C164.832 223.977 164.465 224.077 164.181 224.276C163.903 224.469 163.735 224.767 163.678 225.17H159.349C159.406 224.375 159.658 223.642 160.107 222.972C160.562 222.295 161.224 221.756 162.093 221.352C162.962 220.943 164.048 220.739 165.349 220.739C166.286 220.739 167.127 220.849 167.871 221.071C168.616 221.287 169.249 221.591 169.772 221.983C170.295 222.369 170.692 222.824 170.965 223.347C171.244 223.864 171.383 224.426 171.383 225.034V234H166.985V232.159H166.883C166.621 232.648 166.303 233.043 165.928 233.344C165.559 233.645 165.136 233.864 164.658 234C164.187 234.136 163.667 234.205 163.099 234.205ZM164.633 231.239C164.991 231.239 165.326 231.165 165.638 231.017C165.957 230.869 166.215 230.656 166.414 230.378C166.613 230.099 166.712 229.761 166.712 229.364V228.273C166.587 228.324 166.454 228.372 166.312 228.418C166.175 228.463 166.028 228.506 165.869 228.545C165.715 228.585 165.55 228.622 165.374 228.656C165.204 228.69 165.025 228.722 164.837 228.75C164.474 228.807 164.175 228.901 163.942 229.031C163.715 229.156 163.545 229.312 163.431 229.5C163.323 229.682 163.269 229.886 163.269 230.114C163.269 230.477 163.397 230.756 163.653 230.949C163.908 231.142 164.235 231.239 164.633 231.239ZM178.335 216.545V234H173.631V216.545H178.335Z" fill="black"/>
<path d="M23 238.773H37.9318V240.409H23V238.773ZM37.9297 238.773H72.3743V240.409H37.9297V238.773ZM71.7734 238.773H85.9553V240.409H71.7734V238.773ZM85.9531 238.773H95.669V240.409H85.9531V238.773ZM95.5391 238.773H133.866V240.409H95.5391V238.773ZM133.859 238.773H158.859V240.409H133.859V238.773ZM158.258 238.773H172.44V240.409H158.258V238.773ZM172.438 238.773H179.528V240.409H172.438V238.773Z" fill="black"/>
<path d="M180.932 573.455H184.824V583.426C184.819 584.373 184.58 585.206 184.107 585.926C183.638 586.641 182.989 587.2 182.161 587.602C181.337 588 180.387 588.199 179.312 588.199C178.38 588.199 177.527 588.038 176.756 587.716C175.984 587.389 175.368 586.878 174.909 586.182C174.45 585.481 174.223 584.572 174.227 583.455H178.176C178.19 583.819 178.252 584.127 178.361 584.378C178.474 584.629 178.631 584.818 178.83 584.946C179.033 585.069 179.279 585.131 179.568 585.131C179.862 585.131 180.108 585.067 180.307 584.939C180.51 584.811 180.664 584.622 180.768 584.371C180.873 584.115 180.927 583.8 180.932 583.426V573.455ZM193.826 583.227V577.091H197.746V588H194.025V585.926H193.911C193.674 586.622 193.26 587.167 192.668 587.56C192.076 587.948 191.373 588.142 190.559 588.142C189.797 588.142 189.129 587.967 188.556 587.616C187.988 587.266 187.545 586.783 187.228 586.168C186.915 585.552 186.757 584.847 186.752 584.051V577.091H190.673V583.227C190.677 583.767 190.815 584.191 191.085 584.499C191.359 584.806 191.743 584.96 192.235 584.96C192.562 584.96 192.844 584.892 193.08 584.754C193.322 584.612 193.506 584.413 193.634 584.158C193.767 583.897 193.831 583.587 193.826 583.227ZM203.661 581.864V588H199.74V577.091H203.462V579.165H203.576C203.812 578.473 204.229 577.931 204.826 577.538C205.427 577.145 206.128 576.949 206.928 576.949C207.7 576.949 208.37 577.126 208.938 577.482C209.511 577.832 209.953 578.315 210.266 578.93C210.583 579.546 210.739 580.249 210.735 581.04V588H206.814V581.864C206.819 581.324 206.682 580.9 206.402 580.592C206.128 580.285 205.744 580.131 205.252 580.131C204.93 580.131 204.648 580.202 204.407 580.344C204.17 580.481 203.988 580.68 203.86 580.94C203.732 581.196 203.666 581.504 203.661 581.864ZM216.591 581.864V588H212.67V573.455H216.449V579.165H216.562C216.808 578.469 217.218 577.927 217.791 577.538C218.364 577.145 219.053 576.949 219.858 576.949C220.629 576.949 221.299 577.124 221.868 577.474C222.44 577.825 222.883 578.308 223.196 578.923C223.513 579.539 223.669 580.244 223.664 581.04V588H219.744V581.864C219.749 581.324 219.614 580.9 219.339 580.592C219.069 580.285 218.683 580.131 218.181 580.131C217.864 580.131 217.585 580.202 217.343 580.344C217.107 580.481 216.922 580.68 216.789 580.94C216.662 581.196 216.595 581.504 216.591 581.864ZM230.855 588.199C229.672 588.199 228.658 587.964 227.816 587.496C226.973 587.022 226.327 586.364 225.877 585.521C225.427 584.674 225.202 583.691 225.202 582.574C225.202 581.456 225.427 580.476 225.877 579.634C226.327 578.786 226.973 578.128 227.816 577.659C228.658 577.186 229.672 576.949 230.855 576.949C232.039 576.949 233.052 577.186 233.895 577.659C234.738 578.128 235.384 578.786 235.834 579.634C236.284 580.476 236.509 581.456 236.509 582.574C236.509 583.691 236.284 584.674 235.834 585.521C235.384 586.364 234.738 587.022 233.895 587.496C233.052 587.964 232.039 588.199 230.855 588.199ZM230.884 585.301C231.215 585.301 231.502 585.19 231.743 584.967C231.985 584.745 232.172 584.428 232.304 584.016C232.437 583.604 232.503 583.114 232.503 582.545C232.503 581.973 232.437 581.482 232.304 581.075C232.172 580.663 231.985 580.346 231.743 580.124C231.502 579.901 231.215 579.79 230.884 579.79C230.533 579.79 230.233 579.901 229.982 580.124C229.731 580.346 229.539 580.663 229.407 581.075C229.274 581.482 229.208 581.973 229.208 582.545C229.208 583.114 229.274 583.604 229.407 584.016C229.539 584.428 229.731 584.745 229.982 584.967C230.233 585.19 230.533 585.301 230.884 585.301Z" fill="black"/>
<path d="M174 591.977H185.761V593.341H174V591.977ZM185.758 591.977H237.105V593.341H185.758V591.977Z" fill="black"/>
<path d="M32.2802 34.8333L44.6469 45.1L41.5 47.6667L23.8333 33L41.5 18.3333L44.6469 20.9L32.2802 31.1667H59.1667V34.8333H32.2802Z" fill="#E6E0E9"/>
</g>
<defs>
<linearGradient id="paint0_linear_79_77" x1="215" y1="0" x2="215" y2="932" gradientUnits="userSpaceOnUse">
<stop offset="1" stop-color="#5B5957"/>
</linearGradient>
<clipPath id="clip0_79_77">
<rect width="430" height="932" fill="white"/>
</clipPath>
</defs>
</svg>
